<?xml version="1.0" encoding="UTF-8"?>
<svg width="18px" height="18px" viewBox="0 0 18 18" version="1.1" xmlns="http://www.w3.org/2000/svg" xmlns:xlink="http://www.w3.org/1999/xlink">
    <title>home-2</title>
    <g id="Page-1" stroke="none" stroke-width="1" fill="none" fill-rule="evenodd">
        <g id="Medium" transform="translate(-291.000000, -108.000000)" fill="#B3EFFF" fill-rule="nonzero">
            <g id="home-2" transform="translate(291.000000, 108.000000)">
                <path d="M17.5164835,7.82993045 C17.5160715,7.82951844 17.5156595,7.8291064 17.5152474,7.82869437 L10.1719236,0.485645222 C9.85891866,0.172502941 9.44276903,0 9.00011219,0 C8.55745539,0 8.14130576,0.172365607 7.82816348,0.485507888 L0.488685275,7.82484876 C0.486213081,7.82732095 0.483740888,7.82993045 0.481268729,7.83240264 C-0.161497006,8.47887665 -0.160398261,9.52776594 0.48442763,10.1725918 C0.779028583,10.4673301 1.16812159,10.6380476 1.58413389,10.6559022 C1.60102706,10.6575503 1.61805761,10.6583744 1.63522549,10.6583744 L1.92790365,10.6583744 L1.92790365,16.0624136 C1.92790365,17.131767 2.79797224,18.0018356 3.86760035,18.0018356 L6.74054345,18.0018356 C7.03171084,18.0018356 7.26794098,17.7657428 7.26794098,17.474438 L7.26794098,13.2376779 C7.26794098,12.7496979 7.66486254,12.3527763 8.15284258,12.3527763 L9.84738184,12.3527763 C10.3353619,12.3527763 10.7322835,12.7496979 10.7322835,13.2376779 L10.7322835,17.474438 C10.7322835,17.7657428 10.9683763,18.0018356 11.259681,18.0018356 L14.1326241,18.0018356 C15.2022522,18.0018356 16.0723208,17.131767 16.0723208,16.0624136 L16.0723208,10.6583744 L16.3437107,10.6583744 C16.7862302,10.6583744 17.2023798,10.4860088 17.5156595,10.1728665 C18.1611721,9.5269419 18.1614467,8.47626712 17.5164835,7.82993045 L17.5164835,7.82993045 Z" id="Path"></path>
            </g>
        </g>
    </g>
</svg>