<?xml version="1.0"?>
<svg xmlns="http://www.w3.org/2000/svg" xmlns:xlink="http://www.w3.org/1999/xlink" xmlns:svgjs="http://svgjs.com/svgjs" version="1.1" width="512" height="512" x="0" y="0" viewBox="0 0 24 24" style="enable-background:new 0 0 512 512" xml:space="preserve" class=""><g><path xmlns="http://www.w3.org/2000/svg" d="M20,16a3,3,0,0,0,3-3V9.766a3,3,0,0,0-2.628-2.977L9.136,5.384a2.967,2.967,0,0,0-1.694.3L7.2,3.652A3.007,3.007,0,0,0,4.22,1H2A1,1,0,0,0,2,3H4.22a1,1,0,0,1,1,.887L6.8,17.348A3,3,0,0,0,9.3,19.955a2,2,0,1,0,3.42.045h4.556A1.978,1.978,0,0,0,17,21a2,2,0,0,0,4,0,1.978,1.978,0,0,0-.278-1H22a1,1,0,0,0,0-2H9.78a1,1,0,0,1-1-.886l-.14-1.2A2.984,2.984,0,0,0,9.309,16Z" fill="#b3efff" data-original="#000000" class=""/></g></svg>
